<svg version="1.2" xmlns="http://www.w3.org/2000/svg" viewBox="0 0 212 212" width="32" height="32">
	<title>storo</title>
	<style>
		tspan { white-space:pre } 
		.t0 { font-size: 172px;fill: #4169df;font-weight: 500;font-family: "All Round Gothic" } 
		.s1 { fill: #ffffff;stroke: #ffffff;stroke-miterlimit:10;stroke-width: 19 } 
		.s2 { fill: #4169df } 
		.s3 { fill: #f3973b } 
	</style>
	<g id="Layer 1">
		<text id="Storo
" style="transform: matrix(1,0,0,1,232.978,161.301)" >
			<tspan x="0" y="0" class="t0">Storo
</tspan>
		</text>
		<path id="&lt;Path&gt;" class="s1" d=""/>
		<path id="&lt;Compound Path&gt;" fill-rule="evenodd" class="s2" d="m189.51 58.29v82.76l-31.57-9.62c-5.16-1.57-10.6-0.31-14.54 3.37-3.95 3.69-5.57 9.03-4.36 14.28l9.09 39.19h-88.6c-19.46 0-35.23-15.76-35.23-35.22v-94.76c0-19.45 15.77-35.22 35.23-35.22h94.75c19.46 0 35.23 15.77 35.23 35.22zm-111.73 89.64c0-7.87-6.38-14.25-14.25-14.25-7.88 0-14.26 6.38-14.26 14.25 0 7.88 6.38 14.26 14.26 14.26 7.87 0 14.25-6.38 14.25-14.26zm41.89 0c0-7.87-6.38-14.25-14.25-14.25-7.88 0-14.26 6.38-14.26 14.25 0 7.88 6.38 14.26 14.26 14.26 7.87 0 14.25-6.38 14.25-14.26zm48.2-86.38c0-5.25-4.25-9.5-9.5-9.5h-30.6c-11.47 0-21.59 7.32-25.17 18.22l-7.58 23.04c-1.01 3.08-3.87 5.16-7.12 5.16h-29.1c-5.25 0-9.5 4.25-9.5 9.5 0 5.24 4.25 9.5 9.5 9.5h29.1c11.47 0 21.59-7.33 25.17-18.23l7.58-23.04c1.01-3.08 3.88-5.15 7.12-5.15h30.6c5.25 0 9.5-4.26 9.5-9.5z"/>
		<g id="&lt;Group&gt;">
			<path id="&lt;Path&gt;" class="s3" d="m158.65 141.88l42.39 12.91c6.55 2 6.84 11.17 0.42 13.57l-19.25 7.22c-1.9 0.71-3.4 2.18-4.15 4.06l-5.23 13.16c-2.6 6.53-12.06 5.82-13.65-1.03l-9.6-41.42c-1.25-5.37 3.79-10.08 9.07-8.47z"/>
		</g>
	</g>
</svg>